<svg xmlns="http://www.w3.org/2000/svg" viewBox="0 0 160 160">
  <g stroke="#99704f" stroke-width="3" stroke-linecap="round" stroke-linejoin="round">
    <path d="M29 89 26 35 59 54Q80 43 102 54L133 34 129 94Q130 132 80 136 29 134 29 89Z" fill="#fff3db"/>
    <path d="m36 51 4 20 12-10m60 0 13-10-4 21" fill="#efc8a9" stroke="none"/>
    <path d="m50 89 10 3m40 0 10-3m-36 6 6 4 6-4m-6 4q-5 12-13 4m13-4q5 12 13 4" fill="none"/>
    <path d="m22 99 16 2m-12 10 13-4m98-8-16 2m12 10-13-4" fill="none"/>
    <ellipse cx="48" cy="103" rx="9" ry="5" fill="#edc5b0" stroke="none"/>
    <ellipse cx="111" cy="103" rx="9" ry="5" fill="#edc5b0" stroke="none"/>
    <path d="m81 135 10-21" stroke="#809472"/>
    <path d="M91 117c-23 3-20-13-9-16-14-12-3-24 9-14 9-18 25-12 17 3 21 2 20 20 3 19 4 18-14 22-20 8Z" fill="#e6b06d"/>
    <circle cx="97" cy="103" r="7" fill="#fff5d1"/>
  </g>
</svg>
